<?xml version="1.0" encoding="iso-8859-1"?>
<!-- Generator: Adobe Illustrator 19.0.0, SVG Export Plug-In . SVG Version: 6.00 Build 0)  -->
<svg version="1.1" id="Capa_1" xmlns="http://www.w3.org/2000/svg" xmlns:xlink="http://www.w3.org/1999/xlink" x="0px" y="0px"
	 viewBox="0 0 512 512" style="enable-background:new 0 0 512 512;" xml:space="preserve">
<g>
	<g>
		<path d="M437.333,0H74.667C33.493,0,0,33.493,0,74.667v256c0,41.173,33.493,74.667,74.667,74.667h251.584l103.531,103.552
			c2.048,2.027,4.779,3.115,7.552,3.115c1.365,0,2.752-0.277,4.075-0.811c3.989-1.643,6.592-5.547,6.592-9.856v-96.747
			c36.139-5.205,64-36.373,64-73.92v-256C512,33.493,478.507,0,437.333,0z M490.667,330.667c0,29.419-23.936,53.333-53.333,53.333
			c-5.888,0-10.667,4.779-10.667,10.667v80.917l-88.448-88.469c-2.005-1.984-4.715-3.115-7.552-3.115h-256
			c-29.397,0-53.333-23.915-53.333-53.333v-256c0-29.419,23.936-53.333,53.333-53.333h362.667c29.397,0,53.333,23.915,53.333,53.333
			V330.667z"/>
	</g>
</g>
<g>
</g>
<g>
</g>
<g>
</g>
<g>
</g>
<g>
</g>
<g>
</g>
<g>
</g>
<g>
</g>
<g>
</g>
<g>
</g>
<g>
</g>
<g>
</g>
<g>
</g>
<g>
</g>
<g>
</g>
</svg>
