<svg height="459pt" viewBox="-19 0 459 459.514" width="459pt" xmlns="http://www.w3.org/2000/svg"><path d="m366.742188 291.152344v-76.648438c.164062-42.089844-16.386719-82.519531-46.011719-112.410156-16.402344-16.664062-36.328125-29.433594-58.316407-37.375v-11.867188c0-29.191406-23.660156-52.851562-52.847656-52.851562-29.191406 0-52.851562 23.660156-52.851562 52.851562v11.867188c-21.988282 7.941406-41.914063 20.710938-58.3125 37.375-29.628906 29.890625-46.175782 70.320312-46.011719 112.410156v77.273438c-30.953125 12.160156-52.132813 47.859375-52.132813 80.425781 0 5.523437 4.476563 10 10 10h124.878907c.597656 42.019531 35.777343 77.3125 77.375 77.3125 41.59375 0 76.769531-35.292969 77.371093-77.3125h120.6875c5.523438 0 10-4.476563 10-10 0-20.007813-7.722656-40.855469-21.191406-57.199219-9.386718-11.394531-20.574218-19.496094-32.636718-23.851562zm-190.027344-238.300782c0-18.144531 14.707031-32.851562 32.851562-32.851562 18.140625 0 32.847656 14.707031 32.847656 32.851562v6.171876c-21.65625-4.617188-44.042968-4.617188-65.699218 0zm-104.320313 161.652344c0-76.613281 61.535157-138.941406 137.171875-138.941406 75.640625 0 137.175782 62.328125 137.175782 138.941406v72.953125c-.308594 0-.617188-.011719-.925782-.011719h-270.800781c-.878906 0-1.753906.023438-2.621094.0625zm140.121094 225.011719c-30.757813 0-56.777344-26.136719-57.375-57.3125h114.742187c-.597656 31.175781-26.617187 57.3125-57.367187 57.3125zm-191.511719-77.3125c4.722656-31.511719 31.058594-54.757813 54.011719-54.757813h270.800781c22.953125 0 49.285156 23.246094 54.011719 54.757813zm0 0"/></svg>