<svg height="454pt" viewBox="-19 0 454 454.70552" width="454pt" xmlns="http://www.w3.org/2000/svg"><path d="m338.097656 153.734375c34.636719.023437 65.011719-23.121094 74.179688-56.519531 9.167968-33.402344-5.136719-68.808594-34.929688-86.472656-29.796875-17.660157-67.722656-13.210938-92.625 10.863281s-30.625 61.828125-13.980468 92.203125l-132.964844 69.328125c-20.046875-25.773438-54.203125-36.050781-85.148438-25.621094-30.941406 10.425781-51.910156 39.28125-52.269531 71.933594-.36328125 32.652343 19.960937 61.960937 50.667969 73.070312 30.703125 11.109375 65.078125 1.589844 85.695312-23.734375l130.875 68.046875c-16.210937 37.265625-.71875 80.714844 35.410156 99.320313 36.132813 18.601562 80.5 5.972656 101.414063-28.871094 20.917969-34.84375 11.203125-79.9375-22.207031-103.078125-33.40625-23.140625-79.039063-16.382813-104.304688 15.449219l-130.644531-67.925782c8.757813-19.460937 9.007813-41.6875.691406-61.339843l134.796875-70.285157c14.449219 15.097657 34.441406 23.636719 55.34375 23.632813zm0 166.746094c31.375 0 56.8125 25.4375 56.8125 56.816406 0 31.375-25.4375 56.8125-56.8125 56.8125-31.378906 0-56.8125-25.4375-56.8125-56.8125.035156-31.363281 25.449219-56.78125 56.8125-56.816406zm-260.890625-33.371094c-31.375 0-56.8125-25.4375-56.8125-56.8125 0-31.378906 25.4375-56.816406 56.8125-56.816406 31.378907 0 56.8125 25.4375 56.8125 56.816406-.035156 31.359375-25.449219 56.777344-56.8125 56.8125zm260.890625-267c31.375 0 56.8125 25.433594 56.8125 56.8125 0 31.375-25.4375 56.8125-56.8125 56.8125-31.378906 0-56.8125-25.4375-56.8125-56.8125.035156-31.363281 25.449219-56.777344 56.8125-56.8125zm0 0"/></svg>